# xmcd
#
# Track frame offsets:
#	150
#	22975
#	44017
#	62471
#	79357
#	103676
#	123875
#	145433
#	163130
#	184240
#
# Disc length: 2724 seconds
#
# Revision: 2
# Processed by: cddbd v1.5.2PL0 Copyright (c) Steve Scherf et al.
# Submitted via: EZCDAudioConverter 8.0.2.1
#
DISCID=8a0aa20a
DTITLE=Lê Hiếu - Vol 05. Cơn Đau Cuối Cùng
DYEAR=2007
DGENRE=World Pop
TTITLE0=Lê Hiếu - Chút tàn phai
TTITLE1=Lê Hiếu - Cơn Đau Cuối Cùng
TTITLE2=Lê Hiếu - Mơ một lần thôi
TTITLE3=Lê Hiếu - Một ngày vắng em
TTITLE4=Lê Hiếu - Mùa đông sắp đến
TTITLE5=Lê Hiếu - Ngày mai em đi
TTITLE6=Lê Hiếu - Vài lần đón đưa
TTITLE7=Lê Hiếu - Thiên sứ tình yêu
TTITLE8=Soundtrack - Cơn đau cuối cùng
TTITLE9=Soundtrack - Ngày mai em đi
EXTD=
EXTT0=
EXTT1=
EXTT2=
EXTT3=
EXTT4=
EXTT5=
EXTT6=
EXTT7=
EXTT8=
EXTT9=
PLAYORDER=
